<svg xmlns="http://www.w3.org/2000/svg" xmlns:xlink="http://www.w3.org/1999/xlink" width="500" zoomAndPan="magnify" viewBox="0 0 375 374.999991" height="500" preserveAspectRatio="xMidYMid meet" version="1.0"><defs><clipPath id="83b55f061d"><path d="M 219.890625 5.1875 L 265.234375 5.1875 L 265.234375 297.230469 L 219.890625 297.230469 Z M 219.890625 5.1875 " clip-rule="nonzero"/></clipPath><clipPath id="a5d3de0eeb"><path d="M 109.785156 200 L 155.4375 200 L 155.4375 369.6875 L 109.785156 369.6875 Z M 109.785156 200 " clip-rule="nonzero"/></clipPath></defs><g clip-path="url(#83b55f061d)"><path fill="#1e40af" d="M 265.230469 5.1875 L 265.230469 266.113281 L 219.890625 297.179688 L 219.890625 173.503906 L 233.195312 176.949219 L 219.890625 155.089844 L 219.890625 36.253906 L 265.230469 5.1875 " fill-opacity="1" fill-rule="nonzero"/></g><path fill="#1d4ed8" d="M 210.179688 157.03125 L 198.0625 176.949219 L 210.179688 173.808594 L 210.179688 301.566406 L 164.835938 332.636719 L 164.835938 278.0625 L 177.191406 281.265625 L 164.835938 260.960938 L 164.835938 123.566406 L 210.179688 92.496094 L 210.179688 157.03125 " fill-opacity="1" fill-rule="nonzero"/><g clip-path="url(#a5d3de0eeb)"><path fill="#3b82f6" d="M 155.128906 259.804688 L 142.070312 281.265625 L 155.128906 277.878906 L 155.128906 338.710938 L 109.785156 369.777344 L 109.785156 231.617188 L 155.128906 200.546875 L 155.128906 259.804688 " fill-opacity="1" fill-rule="nonzero"/></g></svg>