<svg xmlns="http://www.w3.org/2000/svg" version="1.1" xmlns:xlink="http://www.w3.org/1999/xlink" xmlns:svgjs="http://svgjs.dev/svgjs" width="500" height="500"><svg xmlns="http://www.w3.org/2000/svg" xmlns:xlink="http://www.w3.org/1999/xlink" width="500" zoomAndPan="magnify" viewBox="0 0 375 374.999991" height="500" preserveAspectRatio="xMidYMid meet" version="1.0"><defs><clipPath id="SvgjsClipPath1027"><path d="M 12.558594 86 L 181 86 L 181 349.148438 L 12.558594 349.148438 Z M 12.558594 86 " clip-rule="nonzero"></path></clipPath><clipPath id="SvgjsClipPath1026"><path d="M 27 25.898438 L 256 25.898438 L 256 101 L 27 101 Z M 27 25.898438 " clip-rule="nonzero"></path></clipPath><clipPath id="SvgjsClipPath1025"><path d="M 194 86 L 362.808594 86 L 362.808594 349.148438 L 194 349.148438 Z M 194 86 " clip-rule="nonzero"></path></clipPath><clipPath id="SvgjsClipPath1024"><path d="M 12.558594 217.140625 L 180.558594 217.140625 L 180.558594 349 L 12.558594 349 Z M 12.558594 217.140625 " clip-rule="nonzero"></path></clipPath></defs><g clip-path="url(#f75c52d60f)"><path fill="#000000" d="M 180.972656 142.460938 L 12.691406 86.355469 L 12.691406 293.0625 L 180.972656 349.164062 L 180.972656 142.460938 " fill-opacity="1" fill-rule="nonzero"></path></g><g clip-path="url(#ae1bc6865e)"><path fill="#000000" d="M 187.492188 25.929688 L 27.136719 77.417969 L 96.828125 100.660156 L 255.492188 47.761719 L 187.492188 25.929688 " fill-opacity="1" fill-rule="nonzero"></path></g><g clip-path="url(#128bf48b90)"><path fill="#000000" d="M 194.015625 349.164062 L 362.304688 293.0625 L 362.304688 86.355469 L 194.015625 142.460938 L 194.015625 349.164062 " fill-opacity="1" fill-rule="nonzero"></path></g><path fill="#000000" d="M 276.488281 54.503906 L 117.4375 107.53125 L 180.433594 128.535156 L 187.492188 130.886719 L 191.558594 129.535156 L 347.851562 77.417969 L 276.488281 54.503906 " fill-opacity="1" fill-rule="nonzero"></path><g clip-path="url(#62e6ada08b)"><path fill="#2563eb" d="M 68.957031 349 L 12.558594 292.601562 L 32.855469 272.320312 L 68.957031 308.421875 L 160.160156 217.21875 L 180.457031 237.515625 Z M 68.957031 349 " fill-opacity="1" fill-rule="nonzero"></path></g></svg><style>@media (prefers-color-scheme: light) { :root { filter: none; } }
@media (prefers-color-scheme: dark) { :root { filter: none; } }
</style></svg>